#!OML:ASF X:\für Bonn\!DataBase\2005_08_12_Daniel\c3d\Daniel.ASF
:FULLY-SPECIFIED
:DEGREES
47
root 4.03246 16.9304 0.594925 -545.74 -90.3179 541.223
lowerback 23.705 -2.2944 4.25617
upperback 6.74152 -2.6649 -2.25535
thorax -6.04301 -1.52438 -4.11889
lowerneck -7.47821 2.88518 1.89311
upperneck -10.6351 3.00498 -5.82869
head -1.97233 1.37092 -2.16309
rclavicle -1.05356e-014 1.86858e-014
rhumerus -44.093 7.64203 -97.8711
rradius 69.8551
rwrist 17.4249
rhand -16.9132 365.868
rfingers 7.12502
rthumb 9.31905 -23.906
lclavicle -1.05356e-014 1.86858e-014
lhumerus -216.869 191.891 -82.5021
lradius 70.5461
lwrist 17.517
lhand -21.7472 8.20505
lfingers 7.12502
lthumb 4.65284 38.134
rfemur -5.43048 19.0938 21.74
rtibia 33.8193
rfoot -39.685 -19.3194
rtoes -10.9151
lfemur -203.777 191.843 -194.083
ltibia 43.4473
lfoot 341.416 4.49455
ltoes 0.399585
48
root 4.02708 16.9354 0.621843 -550.482 -90.3822 546.198
lowerback 23.8459 -2.30865 4.16959
upperback 6.7948 -2.7056 -2.2675
thorax -6.05733 -1.5453 -4.06801
lowerneck -7.3811 2.81975 1.84827
upperneck -10.8799 2.90772 -5.74733
head -2.07527 1.32337 -2.13603
rclavicle 9.34288e-015 2.78299e-014
rhumerus -44.3998 7.33022 -97.7519
rradius 69.9685
rwrist 17.3397
rhand -17.3375 365.815
rfingers 7.12502
rthumb 8.90963 -23.9768
lclavicle 9.34288e-015 2.78299e-014
lhumerus -216.771 191.793 -82.4295
lradius 70.1342
lwrist 17.8169
lhand -21.7452 8.0682
lfingers 7.12502
lthumb 4.65478 37.9971
rfemur -5.68993 18.897 21.4614
rtibia 33.7957
rfoot -39.4051 -19.2676
rtoes -10.8588
lfemur -203.992 191.86 -194.193
ltibia 43.3815
lfoot 341.43 4.51606
ltoes 0.556958
49
root 4.02178 16.9395 0.648968 -553.38 -90.4577 549.336
lowerback 23.9688 -2.31532 4.0617
upperback 6.8626 -2.74148 -2.25796
thorax -6.04409 -1.56333 -3.98298
lowerneck -7.27147 2.74635 1.7763
upperneck -11.1757 2.79455 -5.69494
head -2.1983 1.26891 -2.11506
rclavicle 1.03368e-014 -7.95139e-016
rhumerus -44.6986 7.06614 -97.625
rradius 70.0904
rwrist 17.2521
rhand -17.8436 365.785
rfingers 7.12502
rthumb 8.42129 -24.0275
lclavicle 1.03368e-014 -7.95139e-016
lhumerus -216.666 191.737 -82.3424
lradius 69.7634
lwrist 18.2758
lhand -21.7777 7.98923
lfingers 7.12502
lthumb 4.62339 37.9188
rfemur -5.96303 18.6428 21.1796
rtibia 33.7798
rfoot -39.0688 -19.2242
rtoes -10.7914
lfemur -204.222 191.868 -194.294
ltibia 43.3199
lfoot 341.445 4.49082
ltoes 0.642954
50
root 4.01573 16.945 0.676873 -557.33 -90.5456 553.585
lowerback 24.0656 -2.32285 3.97949
upperback 6.89711 -2.77307 -2.28395
thorax -6.05637 -1.57921 -3.95312
lowerneck -7.21975 2.66737 1.71073
upperneck -11.3981 2.68052 -5.61021
head -2.28755 1.21243 -2.08181
rclavicle 1.59028e-015 -1.98785e-015
rhumerus -45.0213 6.72642 -97.5424
rradius 70.2143
rwrist 17.1492
rhand -18.3084 365.852
rfingers 7.12502
rthumb 7.97273 -23.9772
lclavicle 1.59028e-015 -1.98785e-015
lhumerus -216.654 191.73 -82.2853
lradius 69.453
lwrist 18.7809
lhand -21.7589 7.96115
lfingers 7.12502
lthumb 4.64154 37.8903
rfemur -6.3081 18.3614 20.8444
rtibia 33.7631
rfoot -38.7071 -19.1573
rtoes -10.6987
lfemur -204.52 191.917 -194.409
ltibia 43.265
lfoot 341.445 4.52924
ltoes 0.823744
51
root 4.00806 16.951 0.705832 -558.686 -90.6398 555.266
lowerback 24.1635 -2.33671 3.88535
upperback 6.92587 -2.81275 -2.28059
thorax -6.07435 -1.5989 -3.88159
lowerneck -7.31109 2.59774 1.59139
upperneck -11.5548 2.58354 -5.50701
head -2.33038 1.16293 -2.02879
rclavicle 2.92213e-014 3.61788e-014
rhumerus -45.3184 6.44612 -97.4288
rradius 70.3182
rwrist 17.0784
rhand -18.6895 366.016
rfingers 7.12502
rthumb 7.60485 -23.8269
lclavicle 2.92213e-014 3.61788e-014
lhumerus -216.644 191.655 -82.2085
lradius 69.1851
lwrist 19.334
lhand -21.7216 7.96211
lfingers 7.12502
lthumb 4.67757 37.8905
rfemur -6.68088 18.0469 20.5129
rtibia 33.7637
rfoot -38.3439 -19.0751
rtoes -10.6258
lfemur -204.845 191.95 -194.508
ltibia 43.2115
lfoot 341.462 4.52536
ltoes 0.934163
52
root 3.99964 16.9567 0.735038 -559.887 -90.7255 556.803
lowerback 24.2757 -2.34358 3.81958
upperback 6.94428 -2.83764 -2.30019
thorax -6.11151 -1.61181 -3.85545
lowerneck -7.44144 2.52303 1.5166
upperneck -11.7042 2.47485 -5.43171
head -2.3637 1.10537 -1.99214
rclavicle -2.64384e-014 -1.15295e-014
rhumerus -45.6293 6.14442 -97.3514
rradius 70.4131
rwrist 17.0501
rhand -19.0376 366.245
rfingers 7.12502
rthumb 7.26882 -23.6105
lclavicle -2.64384e-014 -1.15295e-014
lhumerus -216.653 191.64 -82.1504
lradius 68.9215
lwrist 19.8667
lhand -21.6892 8.05554
lfingers 7.12502
lthumb 4.70888 37.9832
rfemur -7.07301 17.671 20.1657
rtibia 33.7633
rfoot -37.9288 -18.9501
rtoes -10.5087
lfemur -205.179 192 -194.6
ltibia 43.1651
lfoot 341.468 4.54301
ltoes 1.07886
53
root 3.99028 16.9629 0.765345 -561.782 -90.8274 559.075
lowerback 24.3665 -2.34806 3.73222
upperback 6.94253 -2.86266 -2.31255
thorax -6.15892 -1.6243 -3.80906
lowerneck -7.63578 2.45878 1.42495
upperneck -11.7937 2.38381 -5.36214
head -2.36531 1.05629 -1.9521
rclavicle -1.63003e-014 1.19271e-015
rhumerus -45.9416 5.83841 -97.2607
rradius 70.5111
rwrist 17.0968
rhand -19.2518 366.467
rfingers 7.12502
rthumb 7.06206 -23.3951
lclavicle -1.63003e-014 1.19271e-015
lhumerus -216.645 191.694 -82.083
lradius 68.6772
lwrist 20.4767
lhand -21.7294 8.20308
lfingers 7.12502
lthumb 4.67007 38.1316
rfemur -7.5194 17.2965 19.7845
rtibia 33.7783
rfoot -37.5079 -18.8456
rtoes -10.4766
lfemur -205.562 192.086 -194.707
ltibia 43.1209
lfoot 341.471 4.56471
ltoes 1.25101
54
root 3.98001 16.9695 0.795498 -561.154 -90.924 558.809
lowerback 24.4798 -2.36398 3.67723
upperback 6.93551 -2.89364 -2.32046
thorax -6.22489 -1.64009 -3.77396
lowerneck -7.83656 2.3914 1.32433
upperneck -11.8766 2.29232 -5.26049
head -2.3639 1.00673 -1.89983
rclavicle 1.53064e-014 1.98785e-015
rhumerus -46.3008 5.54307 -97.191
rradius 70.6174
rwrist 17.2259
rhand -19.3827 366.73
rfingers 7.12502
rthumb 6.93569 -23.1363
lclavicle 1.53064e-014 1.98785e-015
lhumerus -216.582 191.765 -82.0364
lradius 68.3848
lwrist 21.0998
lhand -21.7802 8.34406
lfingers 7.12502
lthumb 4.621 38.2737
rfemur -7.94023 16.8466 19.4435
rtibia 33.7928
rfoot -37.0904 -18.6673
rtoes -10.3354
lfemur -205.935 192.156 -194.779
ltibia 43.0857
lfoot 341.479 4.56954
ltoes 1.39831
55
root 3.96884 16.9756 0.826364 -563.185 -91.0307 561.216
lowerback 24.5819 -2.36643 3.57458
upperback 6.91967 -2.91823 -2.32676
thorax -6.29247 -1.6523 -3.71161
lowerneck -8.08248 2.3295 1.22166
upperneck -11.9338 2.20541 -5.20455
head -2.34559 0.959305 -1.86124
rclavicle -9.14409e-015 -1.07344e-014
rhumerus -46.6968 5.29713 -97.0915
rradius 70.7335
rwrist 17.3639
rhand -19.4275 367.029
rfingers 7.12502
rthumb 6.89248 -22.8386
lclavicle -9.14409e-015 -1.07344e-014
lhumerus -216.457 191.862 -81.9644
lradius 68.0339
lwrist 21.7776
lhand -21.9218 8.34109
lfingers 7.12502
lthumb 4.48429 38.2736
rfemur -8.40134 16.2801 19.024
rtibia 33.8269
rfoot -36.5926 -18.4374
rtoes -10.3629
lfemur -206.32 192.229 -194.903
ltibia 43.0559
lfoot 341.498 4.58576
ltoes 1.51553
56
root 3.95705 16.9822 0.857749 -564.755 -91.1358 563.152
lowerback 24.6567 -2.3634 3.47962
upperback 6.92404 -2.93671 -2.33935
thorax -6.32393 -1.66116 -3.66341
lowerneck -8.26447 2.25887 1.10861
upperneck -12.0589 2.10552 -5.12837
head -2.36161 0.906545 -1.81669
rclavicle -4.37326e-015 -1.59028e-015
rhumerus -47.0089 5.02814 -97.0037
rradius 70.7687
rwrist 17.6049
rhand -19.3989 367.306
rfingers 7.12502
rthumb 6.92007 -22.5608
lclavicle -4.37326e-015 -1.59028e-015
lhumerus -216.304 192.023 -81.9173
lradius 67.7053
lwrist 22.4107
lhand -22.0565 8.33547
lfingers 7.12502
lthumb 4.35423 38.2707
rfemur -8.85755 15.6345 18.6028
rtibia 33.8665
rfoot -36.072 -18.1498
rtoes -10.3139
lfemur -206.699 192.316 -195.028
ltibia 43.037
lfoot 341.485 4.62987
ltoes 1.56386
